<mxfile host="app.diagrams.net" modified="2023-04-06T10:39:13.766Z" agent="Mozilla/5.0 (Windows NT 10.0; Win64; x64) AppleWebKit/537.36 (KHTML, like Gecko) Chrome/111.0.0.0 Safari/537.36" etag="K_GNiQVcOPS59sQ6o0fF" version="21.1.4" type="github">
  <diagram name="Страница 1" id="mcTI6bhqT1SlKo3r-xxu">
    <mxGraphModel dx="1034" dy="708" grid="1" gridSize="10" guides="1" tooltips="1" connect="1" arrows="1" fold="1" page="1" pageScale="1" pageWidth="827" pageHeight="1169" math="0" shadow="0">
      <root>
        <mxCell id="0" />
        <mxCell id="1" parent="0" />
        <mxCell id="kwbujBvNc8b9jjiYY4jM-9" value="" style="edgeStyle=orthogonalEdgeStyle;rounded=0;orthogonalLoop=1;jettySize=auto;html=1;" edge="1" parent="1" source="kwbujBvNc8b9jjiYY4jM-1" target="kwbujBvNc8b9jjiYY4jM-8">
          <mxGeometry relative="1" as="geometry" />
        </mxCell>
        <mxCell id="kwbujBvNc8b9jjiYY4jM-1" value="string[] array ;&lt;br&gt;n = 3;" style="shape=parallelogram;perimeter=parallelogramPerimeter;whiteSpace=wrap;html=1;fixedSize=1;" vertex="1" parent="1">
          <mxGeometry x="177" y="100" width="166" height="40" as="geometry" />
        </mxCell>
        <mxCell id="kwbujBvNc8b9jjiYY4jM-4" value="" style="edgeStyle=orthogonalEdgeStyle;rounded=0;orthogonalLoop=1;jettySize=auto;html=1;" edge="1" parent="1" source="kwbujBvNc8b9jjiYY4jM-2" target="kwbujBvNc8b9jjiYY4jM-1">
          <mxGeometry relative="1" as="geometry" />
        </mxCell>
        <mxCell id="kwbujBvNc8b9jjiYY4jM-2" value="Start" style="rounded=1;whiteSpace=wrap;html=1;arcSize=50;" vertex="1" parent="1">
          <mxGeometry x="180" y="20" width="160" height="60" as="geometry" />
        </mxCell>
        <mxCell id="kwbujBvNc8b9jjiYY4jM-11" value="Yes" style="edgeStyle=orthogonalEdgeStyle;rounded=0;orthogonalLoop=1;jettySize=auto;html=1;entryX=0.5;entryY=0;entryDx=0;entryDy=0;" edge="1" parent="1" source="kwbujBvNc8b9jjiYY4jM-5" target="kwbujBvNc8b9jjiYY4jM-12">
          <mxGeometry relative="1" as="geometry">
            <mxPoint x="260" y="330" as="targetPoint" />
            <Array as="points">
              <mxPoint x="260" y="320" />
              <mxPoint x="260" y="320" />
            </Array>
          </mxGeometry>
        </mxCell>
        <mxCell id="kwbujBvNc8b9jjiYY4jM-21" value="No" style="edgeStyle=orthogonalEdgeStyle;rounded=0;orthogonalLoop=1;jettySize=auto;html=1;" edge="1" parent="1" source="kwbujBvNc8b9jjiYY4jM-5" target="kwbujBvNc8b9jjiYY4jM-20">
          <mxGeometry relative="1" as="geometry" />
        </mxCell>
        <mxCell id="kwbujBvNc8b9jjiYY4jM-5" value="i&amp;lt;array.Lenght;" style="rhombus;whiteSpace=wrap;html=1;" vertex="1" parent="1">
          <mxGeometry x="180" y="230" width="160" height="80" as="geometry" />
        </mxCell>
        <mxCell id="kwbujBvNc8b9jjiYY4jM-10" value="" style="edgeStyle=orthogonalEdgeStyle;rounded=0;orthogonalLoop=1;jettySize=auto;html=1;" edge="1" parent="1" source="kwbujBvNc8b9jjiYY4jM-8" target="kwbujBvNc8b9jjiYY4jM-5">
          <mxGeometry relative="1" as="geometry" />
        </mxCell>
        <mxCell id="kwbujBvNc8b9jjiYY4jM-8" value="int newArrayLenght = 0;&lt;br&gt;int i = 0;" style="rounded=0;whiteSpace=wrap;html=1;" vertex="1" parent="1">
          <mxGeometry x="190" y="160" width="140" height="40" as="geometry" />
        </mxCell>
        <mxCell id="kwbujBvNc8b9jjiYY4jM-14" value="Yes" style="edgeStyle=orthogonalEdgeStyle;rounded=0;orthogonalLoop=1;jettySize=auto;html=1;" edge="1" parent="1" source="kwbujBvNc8b9jjiYY4jM-12" target="kwbujBvNc8b9jjiYY4jM-13">
          <mxGeometry relative="1" as="geometry" />
        </mxCell>
        <mxCell id="kwbujBvNc8b9jjiYY4jM-19" style="edgeStyle=orthogonalEdgeStyle;rounded=0;orthogonalLoop=1;jettySize=auto;html=1;" edge="1" parent="1" source="kwbujBvNc8b9jjiYY4jM-12">
          <mxGeometry relative="1" as="geometry">
            <mxPoint x="70" y="370" as="targetPoint" />
            <Array as="points">
              <mxPoint x="70" y="380" />
            </Array>
          </mxGeometry>
        </mxCell>
        <mxCell id="kwbujBvNc8b9jjiYY4jM-12" value="array[i].Length &amp;lt;= n" style="rhombus;whiteSpace=wrap;html=1;" vertex="1" parent="1">
          <mxGeometry x="180" y="340" width="160" height="80" as="geometry" />
        </mxCell>
        <mxCell id="kwbujBvNc8b9jjiYY4jM-16" style="edgeStyle=orthogonalEdgeStyle;rounded=0;orthogonalLoop=1;jettySize=auto;html=1;entryX=0;entryY=0.5;entryDx=0;entryDy=0;" edge="1" parent="1" source="kwbujBvNc8b9jjiYY4jM-13" target="kwbujBvNc8b9jjiYY4jM-17">
          <mxGeometry relative="1" as="geometry">
            <mxPoint x="160" y="370" as="targetPoint" />
          </mxGeometry>
        </mxCell>
        <mxCell id="kwbujBvNc8b9jjiYY4jM-13" value="newArrayLenght++;" style="whiteSpace=wrap;html=1;" vertex="1" parent="1">
          <mxGeometry x="200" y="450" width="120" height="60" as="geometry" />
        </mxCell>
        <mxCell id="kwbujBvNc8b9jjiYY4jM-18" value="" style="edgeStyle=orthogonalEdgeStyle;rounded=0;orthogonalLoop=1;jettySize=auto;html=1;" edge="1" parent="1" source="kwbujBvNc8b9jjiYY4jM-17" target="kwbujBvNc8b9jjiYY4jM-5">
          <mxGeometry relative="1" as="geometry" />
        </mxCell>
        <mxCell id="kwbujBvNc8b9jjiYY4jM-17" value="i++;" style="rounded=0;whiteSpace=wrap;html=1;" vertex="1" parent="1">
          <mxGeometry x="90" y="255" width="60" height="30" as="geometry" />
        </mxCell>
        <mxCell id="kwbujBvNc8b9jjiYY4jM-24" value="" style="edgeStyle=orthogonalEdgeStyle;rounded=0;orthogonalLoop=1;jettySize=auto;html=1;" edge="1" parent="1" source="kwbujBvNc8b9jjiYY4jM-20" target="kwbujBvNc8b9jjiYY4jM-22">
          <mxGeometry relative="1" as="geometry" />
        </mxCell>
        <mxCell id="kwbujBvNc8b9jjiYY4jM-20" value="string[] newArray = new string[newArrayLenght];&lt;br&gt;int j = 0;&lt;br&gt;i = 0;" style="rounded=0;whiteSpace=wrap;html=1;" vertex="1" parent="1">
          <mxGeometry x="410" y="240" width="270" height="60" as="geometry" />
        </mxCell>
        <mxCell id="kwbujBvNc8b9jjiYY4jM-26" value="Yes" style="edgeStyle=orthogonalEdgeStyle;rounded=0;orthogonalLoop=1;jettySize=auto;html=1;" edge="1" parent="1" source="kwbujBvNc8b9jjiYY4jM-22" target="kwbujBvNc8b9jjiYY4jM-25">
          <mxGeometry relative="1" as="geometry" />
        </mxCell>
        <mxCell id="kwbujBvNc8b9jjiYY4jM-31" style="edgeStyle=orthogonalEdgeStyle;rounded=0;orthogonalLoop=1;jettySize=auto;html=1;entryX=1;entryY=0.5;entryDx=0;entryDy=0;" edge="1" parent="1" source="kwbujBvNc8b9jjiYY4jM-22" target="kwbujBvNc8b9jjiYY4jM-32">
          <mxGeometry relative="1" as="geometry">
            <mxPoint x="510" y="710" as="targetPoint" />
            <Array as="points">
              <mxPoint x="670" y="370" />
              <mxPoint x="670" y="660" />
            </Array>
          </mxGeometry>
        </mxCell>
        <mxCell id="kwbujBvNc8b9jjiYY4jM-22" value="i &amp;lt; array.Length" style="rhombus;whiteSpace=wrap;html=1;rounded=0;" vertex="1" parent="1">
          <mxGeometry x="477.5" y="330" width="135" height="80" as="geometry" />
        </mxCell>
        <mxCell id="kwbujBvNc8b9jjiYY4jM-28" value="Yes" style="edgeStyle=orthogonalEdgeStyle;rounded=0;orthogonalLoop=1;jettySize=auto;html=1;" edge="1" parent="1" source="kwbujBvNc8b9jjiYY4jM-25" target="kwbujBvNc8b9jjiYY4jM-27">
          <mxGeometry relative="1" as="geometry" />
        </mxCell>
        <mxCell id="kwbujBvNc8b9jjiYY4jM-30" value="No" style="edgeStyle=orthogonalEdgeStyle;rounded=0;orthogonalLoop=1;jettySize=auto;html=1;" edge="1" parent="1" source="kwbujBvNc8b9jjiYY4jM-25">
          <mxGeometry relative="1" as="geometry">
            <mxPoint x="420" y="480" as="targetPoint" />
          </mxGeometry>
        </mxCell>
        <mxCell id="kwbujBvNc8b9jjiYY4jM-25" value="array[i].Length &amp;lt;= n" style="rhombus;whiteSpace=wrap;html=1;" vertex="1" parent="1">
          <mxGeometry x="465" y="440" width="160" height="80" as="geometry" />
        </mxCell>
        <mxCell id="kwbujBvNc8b9jjiYY4jM-29" style="edgeStyle=orthogonalEdgeStyle;rounded=0;orthogonalLoop=1;jettySize=auto;html=1;entryX=0.5;entryY=1;entryDx=0;entryDy=0;" edge="1" parent="1" source="kwbujBvNc8b9jjiYY4jM-27" target="kwbujBvNc8b9jjiYY4jM-35">
          <mxGeometry relative="1" as="geometry">
            <mxPoint x="410" y="420" as="targetPoint" />
            <Array as="points">
              <mxPoint x="420" y="585" />
              <mxPoint x="420" y="385" />
            </Array>
          </mxGeometry>
        </mxCell>
        <mxCell id="kwbujBvNc8b9jjiYY4jM-27" value="newArray[j++] = array[i];" style="whiteSpace=wrap;html=1;" vertex="1" parent="1">
          <mxGeometry x="472.5" y="554.5" width="145" height="60" as="geometry" />
        </mxCell>
        <mxCell id="kwbujBvNc8b9jjiYY4jM-34" value="" style="edgeStyle=orthogonalEdgeStyle;rounded=0;orthogonalLoop=1;jettySize=auto;html=1;" edge="1" parent="1" source="kwbujBvNc8b9jjiYY4jM-32" target="kwbujBvNc8b9jjiYY4jM-33">
          <mxGeometry relative="1" as="geometry" />
        </mxCell>
        <mxCell id="kwbujBvNc8b9jjiYY4jM-32" value="Console.WriteLine(String.Join(&quot; &quot;,newArray);" style="shape=parallelogram;perimeter=parallelogramPerimeter;whiteSpace=wrap;html=1;fixedSize=1;" vertex="1" parent="1">
          <mxGeometry x="120" y="630" width="280" height="60" as="geometry" />
        </mxCell>
        <mxCell id="kwbujBvNc8b9jjiYY4jM-33" value="End" style="rounded=1;whiteSpace=wrap;html=1;arcSize=50;" vertex="1" parent="1">
          <mxGeometry x="200" y="720" width="120" height="60" as="geometry" />
        </mxCell>
        <mxCell id="kwbujBvNc8b9jjiYY4jM-36" value="" style="edgeStyle=orthogonalEdgeStyle;rounded=0;orthogonalLoop=1;jettySize=auto;html=1;" edge="1" parent="1" source="kwbujBvNc8b9jjiYY4jM-35" target="kwbujBvNc8b9jjiYY4jM-22">
          <mxGeometry relative="1" as="geometry" />
        </mxCell>
        <mxCell id="kwbujBvNc8b9jjiYY4jM-35" value="i++;" style="rounded=0;whiteSpace=wrap;html=1;" vertex="1" parent="1">
          <mxGeometry x="390" y="355" width="60" height="30" as="geometry" />
        </mxCell>
      </root>
    </mxGraphModel>
  </diagram>
</mxfile>
